# xmcd
#
# Track frame offsets:
#  150
#  15037
#  27097
#  39145
#  51000
#  63365
#  75835
#  87385
#  101940
#  115317
#  128602
#  141522
#  153925
#  167047
#  179942
#  193472
#  205785
#  216625
#  229000
#  241465
#  254540
#  266982
#  279157
#  289440
#  302615
#  315325
#  325032
#
# Disc length: 4476 seconds
#
# Revision: 0
# Processed by: cddbd v1.5.1PL0 Copyright (c) Steve Scherf et al.
# Submitted via: AltoMP3_Maker 3.0
#
DISCID=84117a1b
DTITLE=Various Artist - Can't You Hear Me Callin': Blue Grass 80 Years of American Music
DYEAR=1900
DGENRE=
TTITLE0=Bill Monroe and His Blue Grass Boys - Can't You Hear Me Callin'
TTITLE1=Lester Flatt, Earl Scruggs and the Foggy Mountain Boys - foggy mountain breakdown
TTITLE2=molly o-day and the cumberland mountain folks - poor ellen smith
TTITLE3=the stanley brothers and the clinch mountain boys - the drunkard's hell
TTITLE4=the stanley brothers and the clinch mountain boys - the lonesome river
TTITLE5=wilma lee and stoney cooper with their clinch mountain clan - on the banks of the river
TTITLE6=the stanley brothers and the clinch mountain boys - the fields have turned brown
TTITLE7=the stanley brothers and the clinch mountain boys - the white dove
TTITLE8=wilma lee and stoney cooper with their clinch mountain clan - sunny side of the mountain
TTITLE9=the stanley brothers and the clinch mountain boys - i'm a man of constant sorrow
TTITLE10=mac wiseman - i wonder how the old folks are at home
TTITLE11=bill monroe and his blue grass boys - uncle pen
TTITLE12=wilma lee and stoney cooper with their clinch mountain clan - stoney, are you mad at your gal
TTITLE13=molly o'day and lynn davis - when the angels rolled the stone away
TTITLE14=lester flatt, earl scruggs and the foggy mountain boys - early's breakdown
TTITLE15=lester flatt, earl scruggs and the foggy mountain boys - don't get above your raising
TTITLE16=jim and jesse and the virginia boys - are you missing me?
TTITLE17=lester flatt, earl scruggs and the foggy mountain boys - why did you wander?
TTITLE18=lester flatt, earl scruggs and the foggy mountain boys - flint hill special
TTITLE19=lester flatt, earl scruggs and the foggy mountain boys - i'll go stepping too
TTITLE20=carl story and the rambling mountaineers - love and wealth
TTITLE21=jimmy martin and the osbourne brothers - 20/20 vision
TTITLE22=carl story and the rambling mountaineers - my lord keeps a record
TTITLE23=carl story and the rambling mountaineers - i love the hymns they sang at mother's grave
TTITLE24=carl story and the rambling mountaineers - reunion in heaven
TTITLE25=carl story and the rambling mountaineers - don't you hear jerusalem mourn
TTITLE26=jack youngblood - hitch hiker's blues
EXTD=
EXTT0=
EXTT1=
EXTT2=
EXTT3=
EXTT4=
EXTT5=
EXTT6=
EXTT7=
EXTT8=
EXTT9=
EXTT10=
EXTT11=
EXTT12=
EXTT13=
EXTT14=
EXTT15=
EXTT16=
EXTT17=
EXTT18=
EXTT19=
EXTT20=
EXTT21=
EXTT22=
EXTT23=
EXTT24=
EXTT25=
EXTT26=
PLAYORDER=
